<?xml version="1.0" encoding="UTF-8"?>
<svg width="32" height="32" viewBox="0 0 32 32" fill="none" xmlns="http://www.w3.org/2000/svg">
  <rect width="32" height="32" fill="black"/>
  <path d="M12 8C9.79086 8 8 9.79086 8 12V20C8 22.2091 9.79086 24 12 24H20C22.2091 24 24 22.2091 24 20V12C24 9.79086 22.2091 8 20 8H12ZM12 10H20C21.1046 10 22 10.8954 22 12V20C22 21.1046 21.1046 22 20 22H12C10.8954 22 10 21.1046 10 20V12C10 10.8954 10.8954 10 12 10Z" fill="white"/>
  <path d="M16 14C15.4477 14 15 14.4477 15 15V17C15 17.5523 15.4477 18 16 18H18C18.5523 18 19 17.5523 19 17V15C19 14.4477 18.5523 14 18 14H16Z" fill="white"/>
</svg> 