<?xml version="1.0" encoding="UTF-8"?>
<svg id="Layer_1" data-name="Layer 1" xmlns="http://www.w3.org/2000/svg" viewBox="0 0 1200 630">
  <defs>
    <style>
      .cls-1 {
        fill: #000;
        stroke-width: 0px;
      }
    </style>
  </defs>
  <path class="cls-1" d="M809.09,175.71l-193.01-111.43c-9.2-5.7-22.97-5.7-32.17,0l-193.01,111.43c-9.53,5.11-16.42,17.04-16.08,27.86v222.87c-.34,10.81,6.55,22.75,16.08,27.86l193.01,111.43c9.2,5.7,22.97,5.7,32.17,0l193.01-111.43c9.53-5.11,16.42-17.04,16.08-27.86v-222.87c.34-10.81-6.55-22.75-16.08-27.86ZM632.14,472.86c.17,5.41-3.27,11.37-8.04,13.93l-16.08,9.29c-4.6,2.85-11.49,2.85-16.08,0l-144.76-83.57c-4.77-2.56-8.21-8.52-8.04-13.93v-167.15c-.17-5.41,3.27-11.37,8.04-13.93l76.4-44.11c2.37-1.43,5.6-1.41,8.04,0,2.44,1.41,4.08,4.2,4.02,6.96v51.07c.17,5.41-3.27,11.37-8.04,13.93l-16.08,9.29c-4.77,2.56-8.21,8.52-8.04,13.93v92.86c-.17,5.41,3.27,11.37,8.04,13.93l44.23,25.54c2.37,1.43,5.6,1.41,8.04,0,2.44-1.41,4.08-4.2,4.02-6.96v-65c-.06-2.77,1.58-5.56,4.02-6.96,2.44-1.41,5.67-1.43,8.04,0l44.23,25.54c4.77,2.56,8.21,8.52,8.04,13.93v111.43ZM760.81,398.57c.17,5.41-3.27,11.37-8.04,13.93l-76.4,44.11c-2.37,1.43-5.6,1.41-8.04,0-2.44-1.41-4.08-4.2-4.02-6.96v-51.07c-.17-5.41,3.27-11.37,8.04-13.93l16.08-9.29c4.77-2.56,8.21-8.52,8.04-13.93v-92.86c.17-5.41-3.27-11.37-8.04-13.93l-44.23-25.54c-2.37-1.43-5.6-1.41-8.04,0-2.44,1.41-4.08,4.2-4.02,6.96v65c.06,2.77-1.58,5.56-4.02,6.96s-5.67,1.43-8.04,0l-44.23-25.54c-4.77-2.56-8.21-8.52-8.04-13.93v-111.43c-.17-5.41,3.27-11.37,8.04-13.93l16.08-9.29c4.6-2.85,11.49-2.85,16.08,0l144.76,83.57c4.77,2.56,8.21,8.52,8.04,13.93v167.15Z"/>
</svg>