<svg width="226" height="110" viewBox="0 0 226 110" fill="none" xmlns="http://www.w3.org/2000/svg">
<path d="M159.605 26.493C159.582 27.213 160.036 28.0073 160.663 28.3482L166.49 31.7501C166.803 31.9406 167.229 31.9368 167.549 31.7501C167.869 31.5635 168.085 31.1901 168.078 30.8225V24.0187C168.101 23.2987 167.647 22.5044 167.019 22.1635L161.192 18.7615C160.88 18.5711 160.454 18.5749 160.134 18.7615C159.812 18.9482 159.597 19.3215 159.605 19.6892V26.493Z" fill="white"/>
<path d="M52.6131 58.0418L50.4944 59.2799C49.8672 59.6208 49.4134 60.4151 49.436 61.1351V67.9389C49.4284 68.3085 49.645 68.6799 49.9652 68.8666C50.2872 69.0532 50.7129 69.057 51.0236 68.8666L61.0881 62.9904C61.7153 62.6494 62.1692 61.8551 62.1466 61.1351V38.8666C62.1692 38.1466 61.7153 37.3523 61.0881 37.0113L42.0194 25.8761C41.413 25.497 40.5071 25.497 39.9006 25.8761L37.7819 27.1142C37.1547 27.4551 36.7009 28.2494 36.7235 28.9694V43.8151C36.7009 44.5351 37.1547 45.3294 37.7819 45.6704L43.6089 49.0723C43.9216 49.2628 44.3472 49.2589 44.6674 49.0723C44.9894 48.8856 45.2041 48.5123 45.1966 48.1447V39.4837C45.189 39.1142 45.4056 38.7427 45.7258 38.5561C46.0478 38.3694 46.4735 38.3656 46.7842 38.5561L52.6113 41.958C53.2384 42.2989 53.6923 43.0932 53.6697 43.8132V56.1847C53.6923 56.9047 53.2384 57.6989 52.6113 58.0399L52.6131 58.0418Z" fill="white"/>
<path d="M29.3067 41.9584L31.4255 40.7203C32.0526 40.3793 32.5065 39.5851 32.4839 38.8651V32.0612C32.4914 31.6917 32.2748 31.3203 31.9547 31.1336C31.6326 30.947 31.207 30.9431 30.8962 31.1336L20.8317 37.0098C20.2046 37.3508 19.7507 38.1451 19.7733 38.8651V61.1336C19.7507 61.8536 20.2046 62.6479 20.8317 62.9889L39.9005 74.1241C40.5069 74.5031 41.4128 74.5031 42.0192 74.1241L44.138 72.886C44.7651 72.545 45.219 71.7508 45.1964 71.0308V56.1851C45.219 55.465 44.7651 54.6708 44.138 54.3298L38.3109 50.9279C37.9983 50.7374 37.5727 50.7412 37.2525 50.9279C36.9304 51.1146 36.7157 51.4879 36.7233 51.8555V60.5165C36.7308 60.886 36.5142 61.2574 36.194 61.4441C35.872 61.6308 35.4464 61.6346 35.1356 61.4441L29.3086 58.0422C28.6814 57.7012 28.2276 56.907 28.2502 56.187V43.8155C28.2276 43.0955 28.6814 42.3012 29.3086 41.9603L29.3067 41.9584Z" fill="white"/>
<path d="M68.5062 31.444L43.0812 16.5983C41.8702 15.8383 40.0547 15.8383 38.8437 16.5983L13.4187 31.444C12.1625 32.1259 11.2548 33.7145 11.3 35.1564V64.8479C11.2548 66.2879 12.1625 67.8783 13.4187 68.5602L38.8437 83.4059C40.0547 84.1659 41.8702 84.1659 43.0812 83.4059L68.5062 68.5602C69.7624 67.8783 70.6702 66.2898 70.625 64.8479V35.1564C70.6702 33.7164 69.7624 32.1259 68.5062 31.444ZM45.1981 71.0326C45.2207 71.7526 44.7668 72.5469 44.1396 72.8879L42.0209 74.1259C41.4145 74.505 40.5086 74.505 39.9021 74.1259L20.8334 62.9907C20.2062 62.6498 19.7524 61.8555 19.775 61.1355V38.8669C19.7524 38.1469 20.2062 37.3526 20.8334 37.0117L30.8979 31.1355C31.2106 30.945 31.6362 30.9488 31.9564 31.1355C32.2784 31.3221 32.4931 31.6955 32.4856 32.0631V38.8669C32.5082 39.5869 32.0543 40.3812 31.4271 40.7221L29.3084 41.9602C28.6812 42.3012 28.2274 43.0955 28.25 43.8155V56.1869C28.2274 56.9069 28.6812 57.7012 29.3084 58.0421L35.1354 61.444C35.4481 61.6345 35.8737 61.6307 36.1939 61.444C36.5159 61.2574 36.7306 60.884 36.7231 60.5164V51.8555C36.7155 51.4859 36.9321 51.1145 37.2523 50.9278C37.5743 50.7412 38 50.7374 38.3107 50.9278L44.1378 54.3298C44.7649 54.6707 45.2188 55.465 45.1962 56.185V71.0307L45.1981 71.0326ZM62.1481 61.1355C62.1707 61.8555 61.7168 62.6498 61.0896 62.9907L51.0251 68.8669C50.7125 69.0574 50.2868 69.0536 49.9667 68.8669C49.6446 68.6802 49.4299 68.3069 49.4375 67.9393V61.1355C49.4149 60.4155 49.8687 59.6212 50.4959 59.2802L52.6146 58.0421C53.2418 57.7012 53.6957 56.9069 53.6731 56.1869V43.8155C53.6957 43.0955 53.2418 42.3012 52.6146 41.9602L46.7876 38.5583C46.475 38.3678 46.0493 38.3717 45.7292 38.5583C45.4071 38.745 45.1924 39.1183 45.2 39.4859V48.1469C45.2075 48.5164 44.9909 48.8878 44.6707 49.0745C44.3506 49.2612 43.9231 49.265 43.6123 49.0745L37.7853 45.6726C37.1581 45.3317 36.7042 44.5374 36.7268 43.8174V28.9717C36.7042 28.2517 37.1581 27.4574 37.7853 27.1164L39.904 25.8783C40.5105 25.4993 41.4163 25.4993 42.0228 25.8783L61.0915 37.0136C61.7187 37.3545 62.1726 38.1488 62.15 38.8688V61.1374L62.1481 61.1355Z" fill="#FD6119"/>
<path d="M101.344 79.0609C100.738 79.4399 99.8319 79.4399 99.2255 79.0609L88.6317 72.8742C88.0253 72.4952 87.1194 72.4952 86.513 72.8742L80.686 76.2761C80.3658 76.4533 80.1567 76.8285 80.1567 77.2037C80.1567 77.579 80.3677 77.9542 80.686 78.1313L99.2255 88.9561C99.8319 89.3352 100.738 89.3352 101.344 88.9561L120.413 77.8209C121.04 77.4799 121.494 76.6856 121.471 75.9656V69.1618C121.479 68.7923 121.262 68.4209 120.942 68.2342C120.62 68.0475 120.195 68.0437 119.884 68.2342L101.344 79.059V79.0609Z" fill="white"/>
<path d="M133.121 70.4018C133.749 70.0608 134.203 69.2666 134.18 68.5466V43.8151C134.157 43.0951 134.611 42.3008 135.238 41.9599L145.832 35.7732C146.439 35.3942 147.344 35.3942 147.951 35.7732L153.778 39.1751C154.091 39.3656 154.516 39.3618 154.836 39.1751C155.158 38.9885 155.373 38.6151 155.366 38.2475V31.4437C155.388 30.7237 154.934 29.9294 154.307 29.5885L147.951 25.8761C147.344 25.497 146.439 25.497 145.832 25.8761L126.763 37.0113C126.136 37.3523 125.682 38.1466 125.705 38.8666V72.878C125.697 73.2475 125.914 73.6189 126.234 73.8056C126.556 73.9923 126.982 73.9961 127.293 73.8056L133.12 70.4037L133.121 70.4018Z" fill="white"/>
<path d="M167.019 37.0092C167.647 37.3501 168.101 38.1444 168.078 38.8644V72.8758C168.085 73.2453 167.869 73.6168 167.549 73.8034C167.227 73.9901 166.801 73.9939 166.49 73.8034L160.663 70.4015C160.036 70.0606 159.582 69.2663 159.605 68.5463V34.5349C159.597 34.1653 159.814 33.7939 160.134 33.6073C160.456 33.4206 160.882 33.4168 161.192 33.6073L167.019 37.0092Z" fill="white"/>
<path d="M206.225 11.8269C206.217 11.4573 206.434 11.0859 206.754 10.8992C207.076 10.7126 207.502 10.7088 207.813 10.8992L213.64 14.3011C214.267 14.6421 214.721 15.4364 214.698 16.1564L214.694 61.1335C214.717 61.8535 214.263 62.6478 213.636 62.9888L194.567 74.124C193.961 74.5031 193.055 74.5031 192.448 74.124L173.38 62.9888C172.752 62.6478 172.299 61.8535 172.321 61.1335V38.865C172.299 38.145 172.752 37.3507 173.38 37.0097L192.448 25.8745C193.055 25.4954 193.961 25.4954 194.567 25.8745L200.92 29.5831C201.547 29.924 202.001 30.7183 201.978 31.4383V38.2421C201.986 38.6116 201.769 38.9831 201.449 39.1697C201.127 39.3564 200.701 39.3602 200.39 39.1697L194.567 35.7697C193.961 35.3907 193.055 35.3907 192.448 35.7697L181.855 41.9564C181.227 42.2973 180.774 43.0916 180.796 43.8116V56.1831C180.774 56.9031 181.227 57.6973 181.855 58.0383L192.448 64.225C193.055 64.604 193.961 64.604 194.567 64.225L205.161 58.0383C205.788 57.6973 206.242 56.9031 206.219 56.1831L206.223 11.825L206.225 11.8269Z" fill="white"/>
<path d="M120.413 37.0094L101.344 25.8741C100.737 25.4951 99.8316 25.4951 99.2252 25.8741L80.1564 37.0094C79.5293 37.3503 79.0754 38.1446 79.098 38.8646V61.1332C79.0754 61.8532 79.5293 62.6475 80.1564 62.9884L99.2252 74.1237C99.8316 74.5027 100.737 74.5027 101.344 74.1237L120.413 62.9884C121.04 62.6475 121.494 61.8532 121.471 61.1332V38.8646C121.494 38.1446 121.04 37.3503 120.413 37.0094ZM112.996 56.1865C113.019 56.9065 112.565 57.7008 111.938 58.0417L101.344 64.2284C100.737 64.6075 99.8316 64.6075 99.2252 64.2284L88.6314 58.0417C88.0043 57.7008 87.5504 56.9065 87.573 56.1865V43.8151C87.5504 43.0951 88.0043 42.3008 88.6314 41.9598L99.2252 35.7732C99.8316 35.3941 100.737 35.3941 101.344 35.7732L111.938 41.9598C112.565 42.3008 113.019 43.0951 112.996 43.8151V56.1865Z" fill="white"/>
</svg>
