<svg version="1.2" xmlns="http://www.w3.org/2000/svg" viewBox="0 0 1227 207" width="1227" height="207">
	<title>logo</title>
	<style>
		.s0 { fill: #ffffff } 
		.s1 { fill: #010101 } 
	</style>
	<g id="Background">
		<path id="Path 0" class="s0" d="m0 103.5v103.5h1227v-207h-1227z"/>
		<path id="Path 1" class="s1" d="m935.3 70.7l-5.3 0.3v66h11c0-51.9-0.1-66.9-0.2-66.8-0.2 0.1-2.7 0.3-5.5 0.5zm-693.8 1.4c-3.3 0.4-7.9 1.5-10.3 2.3-2.3 0.9-5.8 2.8-7.8 4.3-2 1.6-4.7 4.8-5.9 7.3-1.2 2.5-2.7 7.5-3.4 11.2-0.8 4.9-0.8 8.7-0.1 13.5 0.6 3.8 2.1 8.8 3.3 11.2 1.2 2.5 3.5 5.6 5.2 6.9 1.7 1.4 4.8 3.3 7 4.3 2.2 1 7.6 2.4 12 3.1 6.3 0.9 9.8 0.9 16.5 0 4.7-0.7 10.3-1.8 12.4-2.5 2.1-0.6 5.5-2.6 7.5-4.3l3.6-3.2c0.6-16 0.5-21.9 0.1-23.5l-0.6-2.7h-46v6c35.9 0 39.1 0.2 39.5 1.5 0.3 0.8 0.5 4.5 0.5 8.2 0 3.8-0.4 7.3-0.8 8-0.4 0.6-2.9 2.2-5.7 3.5-4.4 2-6.5 2.3-18.5 2.3-12.5 0-13.9-0.2-18.5-2.6-3.4-1.7-5.9-4-7.8-7-2.1-3.3-3-6.1-3.4-11.4-0.3-3.8-0.3-9 0.1-11.5 0.3-2.5 1.8-6.4 3.4-8.8 1.9-3.1 4.3-5 8.2-6.9 4.2-2 7.5-2.8 14-3.1 4.8-0.3 11.3 0 15 0.7 3.6 0.7 7.7 1.9 9.3 2.7 1.5 0.8 3.6 2.4 4.7 3.6l2 2.3 4.5-4.5c-5.4-5.5-9-7.7-11.5-8.5-2.5-0.8-7.6-1.9-11.5-2.5-3.8-0.5-7.9-0.9-9-0.9-1.1 0.1-4.7 0.5-8 1zm72-0.4c-0.5 0.3-0.8 15.2-0.7 33l0.2 32.3h6l0.5-30.5 51.5-0.5c0 21.7 0.2 28.7 0.5 29.5 0.3 0.9 1.7 1.5 3.5 1.5h3c0-62.5-0.1-65-1.8-65.7-0.9-0.3-2.4-0.1-3.2 0.4-1.2 0.8-1.6 3.8-1.7 14.7l-0.3 13.6-51.5-0.5c-0.5-22.7-1-27.2-1.8-27.7-0.7-0.4-1.7-0.8-2.3-0.8-0.6 0-1.4 0.3-1.9 0.7zm96.1 1.3c-0.4 1.1-0.4 2.9-0.1 4 0.5 1.9 1.4 2 14.8 2.3l14.2 0.2c-0.5 41.1-0.4 54-0.1 55.3 0.5 1.7 1.3 2.2 4.1 2.2h3.5v-58h29v-8c-64 0-64.9 0.1-65.4 2zm173.4-0.8c-3 0.5-6.9 1.7-8.5 2.8-1.6 1-3.6 2.9-4.4 4.2-0.8 1.3-1.6 4.8-1.9 7.8-0.4 3.8 0 6.9 1.1 10 1.1 2.8 2.9 5.3 4.9 6.7 1.8 1.2 5.3 2.7 7.8 3.2 2.5 0.6 10.8 1.1 18.5 1.1 8 0.1 15.5 0.6 17.5 1.3 1.9 0.7 4 2.3 4.7 3.7 0.7 1.4 1.3 4 1.3 5.8 0 1.7-0.5 4.1-1 5.2-0.5 1.1-2.6 2.7-4.5 3.5-2.6 1.1-7.4 1.5-18.5 1.5-11.1 0-15.9-0.4-18.5-1.5-1.9-0.8-3.9-2.6-4.5-4-0.5-1.4-1-3.6-1-5 0-2.2-0.4-2.5-3.5-2.5h-3.5c0 7.7 0.7 10.7 2 12.8 1.2 1.9 4 4.1 6.8 5.5 4.3 2 6.1 2.2 22.7 2.2 14.9 0 18.6-0.3 21.5-1.7 1.9-1 4.6-2.9 6-4.3 2.2-2.3 2.5-3.7 2.8-10.8 0.3-6.9 0-8.7-1.8-11.4-1.2-2-3.9-4.2-6.7-5.4-4.1-1.9-7.3-2.3-23-2.8-17.7-0.6-18.3-0.7-20.8-3.1-1.9-1.8-2.6-3.6-2.7-6.5 0-2.2 0.2-4.9 0.5-6 0.4-1.1 1.9-2.7 3.4-3.5 1.9-1 7.2-1.5 17.3-1.8 8.7-0.2 16.1 0 18.5 0.7 2.2 0.6 4.7 1.5 5.5 2.1 0.8 0.5 1.7 2.9 2 5.2 0.5 4.2 0.6 4.3 4.3 4.6l3.7 0.2c0-6.2-0.6-9.2-1.4-10.7-0.7-1.6-2.6-3.9-4.2-5.4-1.9-1.7-5-2.9-9.4-3.7-3.6-0.7-11.2-1.1-17-1.1-5.8 0.1-13 0.6-16 1.1zm80.4 0.1c-0.3 0.6-0.4 2.6-0.2 4.2l0.3 3 28.5 0.5 0.5 56.5 8.5 0.5v-57h29v-9c-58.5 0-66.2 0.3-66.6 1.3zm165.8 4l0.3 5.2 27.5 0.5 0.5 54.5 11.5 0.5 0.5-54.5 28-1 0.5-10.5h-69.1zm160.3-4.6c-1.1 0.3-3.6 1-5.5 1.6-1.9 0.6-5 2.5-6.8 4.2-2.3 2.1-3.9 4.8-4.9 8.6-1 3.6-1.3 7.2-0.9 10.5 0.4 2.7 1.7 6.8 2.9 9 1.5 2.6 3.7 4.7 6.7 6.2 2.5 1.2 7.2 2.7 10.5 3.3 4.3 0.8 7.9 0.8 13 0 3.8-0.6 8.9-1.9 11.2-3 3.1-1.5 5.1-3.4 7-6.8 2.4-4.1 2.8-5.8 2.7-12.2 0-4.9-0.6-8.6-1.6-10.5-0.9-1.7-2.7-4-4-5.2-1.2-1.3-4.1-3-6.3-3.9-2.5-1.1-7.4-1.8-13-2-5-0.2-9.9-0.1-11 0.2zm65.7 32.1l0.3 32.8 11 0.5c1.2-22.1 1.5-32.3 1.5-36.8 0-4.5 0.3-8.3 0.7-8.3 0.5 0 10.9 10.2 23.3 22.6l22.5 22.5h9.5v-66h-12c0 34-0.3 44.2-0.8 44.4-0.4 0.3-10.9-9.6-23.5-22l-22.7-22.4h-10zm-969.3 0.7v32.5h59v-5c-39.5 0-51.6-0.2-52.5-0.5-1.3-0.4-1.5-4.7-1.5-30v-29.5h-5zm91.3-0.2l0.2 32.2 4.5 0.5v-65h-5zm597.1-31.1c-0.6 0.8-4.5 7.3-8.7 14.6-4.2 7.3-11.1 19.2-15.3 26.5-4.2 7.3-8.7 15.1-10 17.3-1.3 2.1-2.3 4.3-2.3 4.7 0 0.4 2.1 0.6 4.7 0.5l4.7-0.2 13.1-22h29.9c8.1 13.9 11.2 19 12 20.2 1.2 1.7 2.5 2.3 5.6 2.3 3.1 0 4-0.4 4-1.8 0-1-7.8-15-17.2-31.2-9.4-16.3-17.7-30.1-18.3-30.9-0.9-1-1.3-1-2.2 0zm220.2 54.9c-1.3 0.7-1.8 2-1.7 4 0.1 2.2 0.8 3.2 2.9 4 1.7 0.6 3.8 0.7 5.3 0.2 1.8-0.7 2.5-1.7 2.7-3.8 0.2-1.6-0.3-3.5-1-4.2-0.7-0.8-2.4-1.3-3.7-1.3-1.4 0.1-3.4 0.6-4.5 1.1z"/>
		<path id="Path 2" class="s0" d="m770.2 97.3c-2.3 3.9-4.2 7.5-4.2 8 0 0.4 4.3 0.7 9.5 0.7 5.2 0 9.5-0.3 9.5-0.7 0-0.5-2-4.1-4.3-8-2.3-4-4.7-7.3-5.3-7.3-0.6 0-2.9 3.3-5.2 7.3z"/>
	</g>
</svg>